<mxfile modified="2022-05-02T02:01:24.724Z" host="app.diagrams.net" agent="5.0 (Windows NT 10.0; Win64; x64) AppleWebKit/537.36 (KHTML, like Gecko) Chrome/100.0.4896.127 Safari/537.36 Edg/100.0.1185.50" etag="Q_c_qoaL_keWf_tz9NFL" compressed="false" version="17.5.0" type="google">
  <diagram id="-yCrRghWV1yZ1X2wDWPH" name="System Context/Constraints/Agreements/Principles/Data &amp; Information Management">
    <mxGraphModel grid="1" page="1" gridSize="10" guides="1" tooltips="1" connect="1" arrows="1" fold="1" pageScale="1" pageWidth="827" pageHeight="1169" math="0" shadow="0">
      <root>
        <mxCell id="9pa9Pr11mj6_5Fp1FYpv-0" />
        <mxCell id="vxBBJPv8Y2YeqQfoSaYq-9" value="Diagram" parent="9pa9Pr11mj6_5Fp1FYpv-0" />
        <mxCell id="9pa9Pr11mj6_5Fp1FYpv-5" value="Open" style="rounded=0;whiteSpace=wrap;html=1;shadow=0;glass=0;comic=0;strokeColor=#666666;fillColor=#f5f5f5;fontSize=12;align=center;fontColor=#333333;recursiveResize=0;container=1;collapsible=0;overflow=fill;verticalAlign=middle;" vertex="1" parent="vxBBJPv8Y2YeqQfoSaYq-9">
          <mxGeometry x="120" y="260" width="100" height="40" as="geometry" />
        </mxCell>
        <mxCell id="9pa9Pr11mj6_5Fp1FYpv-6" value="&lt;span style=&quot;color: rgb(24, 43, 70); font-family: &amp;quot;fira sans&amp;quot;, helvetica, arial, sans-serif; font-size: 12px;&quot;&gt;&lt;font style=&quot;font-size: 12px;&quot;&gt;Data and information held by government should be open for public access unless grounds for refusal or limitations exist under the Official Information Act or other government policy. In such cases they should be protected.&lt;/font&gt;&lt;/span&gt;" style="text;html=1;strokeColor=none;fillColor=none;align=left;verticalAlign=top;whiteSpace=wrap;rounded=0;fontFamily=Helvetica;fontSize=12;fontColor=#999999;gradientColor=none;recursiveResize=0;" vertex="1" parent="vxBBJPv8Y2YeqQfoSaYq-9">
          <mxGeometry x="240" y="253" width="440" height="40" as="geometry" />
        </mxCell>
        <mxCell id="9pa9Pr11mj6_5Fp1FYpv-7" value="Protected" style="rounded=0;whiteSpace=wrap;html=1;shadow=0;glass=0;comic=0;strokeColor=#666666;fillColor=#f5f5f5;fontSize=12;align=center;fontColor=#333333;recursiveResize=0;container=1;collapsible=0;overflow=fill;verticalAlign=middle;" vertex="1" parent="vxBBJPv8Y2YeqQfoSaYq-9">
          <mxGeometry x="120" y="310" width="100" height="40" as="geometry" />
        </mxCell>
        <mxCell id="9pa9Pr11mj6_5Fp1FYpv-8" value="&lt;h3 style=&quot;box-sizing: border-box; font-family: &amp;quot;fira sans&amp;quot;, helvetica, arial, sans-serif; font-weight: 500; line-height: 1.1; font-size: 12px;&quot;&gt;&lt;font style=&quot;font-size: 12px&quot;&gt;Readily Available&lt;/font&gt;&lt;/h3&gt;" style="rounded=0;whiteSpace=wrap;html=1;shadow=0;glass=0;comic=0;strokeColor=#666666;fillColor=#f5f5f5;fontSize=12;align=center;fontColor=#333333;recursiveResize=0;container=1;collapsible=0;overflow=fill;verticalAlign=middle;" vertex="1" parent="vxBBJPv8Y2YeqQfoSaYq-9">
          <mxGeometry x="120" y="360" width="100" height="40" as="geometry" />
        </mxCell>
        <mxCell id="9pa9Pr11mj6_5Fp1FYpv-9" value="&lt;h3 style=&quot;box-sizing: border-box; font-family: &amp;quot;fira sans&amp;quot;, helvetica, arial, sans-serif; font-weight: 500; line-height: 1.1; font-size: 12px;&quot;&gt;Trusted and Authoritative&lt;/h3&gt;" style="rounded=0;whiteSpace=wrap;html=1;shadow=0;glass=0;comic=0;strokeColor=#666666;fillColor=#f5f5f5;fontSize=12;align=center;fontColor=#333333;recursiveResize=0;container=1;collapsible=0;overflow=fill;verticalAlign=middle;" vertex="1" parent="vxBBJPv8Y2YeqQfoSaYq-9">
          <mxGeometry x="120" y="410" width="100" height="40" as="geometry" />
        </mxCell>
        <mxCell id="9pa9Pr11mj6_5Fp1FYpv-10" value="&lt;h3 style=&quot;box-sizing: border-box; font-family: &amp;quot;fira sans&amp;quot;, helvetica, arial, sans-serif; font-weight: 500; line-height: 1.1; font-size: 12px;&quot;&gt;Well Managed&lt;/h3&gt;" style="rounded=0;whiteSpace=wrap;html=1;shadow=0;glass=0;comic=0;strokeColor=#666666;fillColor=#f5f5f5;fontSize=12;align=center;fontColor=#333333;recursiveResize=0;container=1;collapsible=0;overflow=fill;verticalAlign=middle;" vertex="1" parent="vxBBJPv8Y2YeqQfoSaYq-9">
          <mxGeometry x="120" y="460" width="100" height="40" as="geometry" />
        </mxCell>
        <mxCell id="9pa9Pr11mj6_5Fp1FYpv-11" value="&lt;h3 style=&quot;box-sizing: border-box; font-family: &amp;quot;fira sans&amp;quot;, helvetica, arial, sans-serif; font-weight: 500; line-height: 1.1; font-size: 12px;&quot;&gt;Reasonably Priced&lt;/h3&gt;" style="rounded=0;whiteSpace=wrap;html=1;shadow=0;glass=0;comic=0;strokeColor=#666666;fillColor=#f5f5f5;fontSize=12;align=center;fontColor=#333333;recursiveResize=0;container=1;collapsible=0;overflow=fill;verticalAlign=middle;" vertex="1" parent="vxBBJPv8Y2YeqQfoSaYq-9">
          <mxGeometry x="120" y="540" width="100" height="40" as="geometry" />
        </mxCell>
        <mxCell id="9pa9Pr11mj6_5Fp1FYpv-14" value="&lt;h3 style=&quot;box-sizing: border-box; font-family: &amp;quot;fira sans&amp;quot;, helvetica, arial, sans-serif; font-weight: 500; line-height: 1.1; font-size: 12px;&quot;&gt;Reusable&lt;/h3&gt;" style="rounded=0;whiteSpace=wrap;html=1;shadow=0;glass=0;comic=0;strokeColor=#666666;fillColor=#f5f5f5;fontSize=12;align=center;fontColor=#333333;recursiveResize=0;container=1;collapsible=0;overflow=fill;verticalAlign=middle;" vertex="1" parent="vxBBJPv8Y2YeqQfoSaYq-9">
          <mxGeometry x="120" y="590" width="100" height="40" as="geometry" />
        </mxCell>
        <mxCell id="vxBBJPv8Y2YeqQfoSaYq-1" value="&lt;font style=&quot;font-size: 12px;&quot;&gt;&lt;span style=&quot;color: rgb(24, 43, 70); font-family: &amp;quot;fira sans&amp;quot;, helvetica, arial, sans-serif; font-size: 12px;&quot;&gt;Personal, confidential and classified&amp;nbsp;&lt;/span&gt;&lt;a href=&quot;https://www.data.govt.nz/manage-data/policies/new-zealand-data-and-information-management-principles/#fn2&quot; style=&quot;box-sizing: border-box; background-color: transparent; color: rgb(48, 125, 153); font-family: &amp;quot;fira sans&amp;quot;, helvetica, arial, sans-serif; font-size: 12px;&quot;&gt;[2]&lt;/a&gt;&lt;span style=&quot;color: rgb(24, 43, 70); font-family: &amp;quot;fira sans&amp;quot;, helvetica, arial, sans-serif; font-size: 12px;&quot;&gt;&amp;nbsp;data and information are protected.&lt;/span&gt;&lt;/font&gt;" style="text;html=1;strokeColor=none;fillColor=none;align=left;verticalAlign=top;whiteSpace=wrap;rounded=0;fontFamily=Helvetica;fontSize=12;fontColor=#999999;gradientColor=none;recursiveResize=0;" vertex="1" parent="vxBBJPv8Y2YeqQfoSaYq-9">
          <mxGeometry x="240" y="310" width="440" height="40" as="geometry" />
        </mxCell>
        <mxCell id="vxBBJPv8Y2YeqQfoSaYq-2" value="&lt;span style=&quot;color: rgb(24, 43, 70); font-family: &amp;quot;fira sans&amp;quot;, helvetica, arial, sans-serif; font-size: 12px;&quot;&gt;&lt;font style=&quot;font-size: 12px;&quot;&gt;Open data and information are released proactively and without discrimination. They are discoverable and accessible and released online.&lt;/font&gt;&lt;/span&gt;" style="text;html=1;strokeColor=none;fillColor=none;align=left;verticalAlign=top;whiteSpace=wrap;rounded=0;fontFamily=Helvetica;fontSize=12;fontColor=#999999;gradientColor=none;recursiveResize=0;" vertex="1" parent="vxBBJPv8Y2YeqQfoSaYq-9">
          <mxGeometry x="240" y="360" width="440" height="40" as="geometry" />
        </mxCell>
        <mxCell id="vxBBJPv8Y2YeqQfoSaYq-3" value="&lt;span style=&quot;color: rgb(24, 43, 70); font-family: &amp;quot;fira sans&amp;quot;, helvetica, arial, sans-serif; font-size: 12px;&quot;&gt;&lt;font style=&quot;font-size: 12px;&quot;&gt;Data and information support the purposes for which they were collected and are accurate, relevant, timely, consistent and without bias in that context. Where possible there is an identified authoritative single source.&lt;/font&gt;&lt;/span&gt;" style="text;html=1;strokeColor=none;fillColor=none;align=left;verticalAlign=top;whiteSpace=wrap;rounded=0;fontFamily=Helvetica;fontSize=12;fontColor=#999999;gradientColor=none;recursiveResize=0;" vertex="1" parent="vxBBJPv8Y2YeqQfoSaYq-9">
          <mxGeometry x="240" y="410" width="440" height="40" as="geometry" />
        </mxCell>
        <mxCell id="vxBBJPv8Y2YeqQfoSaYq-4" value="&lt;p style=&quot;box-sizing: border-box; margin: 0px 0px 20px; line-height: 1.5em; color: rgb(24, 43, 70); font-family: &amp;quot;fira sans&amp;quot;, helvetica, arial, sans-serif; font-size: 12px;&quot;&gt;&lt;font style=&quot;font-size: 12px;&quot;&gt;Data and information held and owned by government: [is]&lt;/font&gt;&lt;span style=&quot;font-size: 12px;&quot;&gt;effectively belong to the New Zealand public,&amp;nbsp;&lt;/span&gt;&lt;span style=&quot;font-size: 12px;&quot;&gt;are a core strategic asset held by government as a steward on behalf of the public; and&amp;nbsp;&lt;/span&gt;&lt;span style=&quot;font-size: 12px;&quot;&gt;should only be collected or generated for specified public policy, operational business, or legislative purposes.&lt;/span&gt;&lt;/p&gt;" style="text;html=1;strokeColor=none;fillColor=none;align=left;verticalAlign=top;whiteSpace=wrap;rounded=0;fontFamily=Helvetica;fontSize=12;fontColor=#999999;gradientColor=none;recursiveResize=0;" vertex="1" parent="vxBBJPv8Y2YeqQfoSaYq-9">
          <mxGeometry x="240" y="460" width="440" height="80" as="geometry" />
        </mxCell>
        <mxCell id="vxBBJPv8Y2YeqQfoSaYq-5" value="&lt;span style=&quot;color: rgb(24, 43, 70); font-family: &amp;quot;fira sans&amp;quot;, helvetica, arial, sans-serif; font-size: 12px;&quot;&gt;&lt;font style=&quot;font-size: 12px;&quot;&gt;Use and re-use of government held data and information is expected to be free. Charging for access is discouraged.&lt;/font&gt;&lt;/span&gt;" style="text;html=1;strokeColor=none;fillColor=none;align=left;verticalAlign=top;whiteSpace=wrap;rounded=0;fontFamily=Helvetica;fontSize=12;fontColor=#999999;gradientColor=none;recursiveResize=0;" vertex="1" parent="vxBBJPv8Y2YeqQfoSaYq-9">
          <mxGeometry x="240" y="540" width="440" height="40" as="geometry" />
        </mxCell>
        <mxCell id="vxBBJPv8Y2YeqQfoSaYq-6" value="&lt;span style=&quot;color: rgb(24, 43, 70); font-family: &amp;quot;fira sans&amp;quot;, helvetica, arial, sans-serif; font-size: 12px;&quot;&gt;&lt;font style=&quot;font-size: 12px;&quot;&gt;Data and information released can be discovered, shared, used and re-used over time and through technology change. Copyright works are licensed for re-use and open access to and re-use of non-copyright materials is enabled, in accordance with the New Zealand Government Open Access and Licensing framework.&lt;/font&gt;&lt;/span&gt;" style="text;html=1;strokeColor=none;fillColor=none;align=left;verticalAlign=top;whiteSpace=wrap;rounded=0;fontFamily=Helvetica;fontSize=12;fontColor=#999999;gradientColor=none;recursiveResize=0;" vertex="1" parent="vxBBJPv8Y2YeqQfoSaYq-9">
          <mxGeometry x="240" y="580" width="440" height="40" as="geometry" />
        </mxCell>
        <mxCell id="msWVFrf8vx3zRPam6J4N-0" value="Source:&lt;br&gt;&lt;br&gt;&lt;a href=&quot;data:page/id,PDShuZ-yXdiyHlfbQ3Md&quot;&gt;https://www.data.govt.nz/manage-data/policies/new-zealand-data-and-information-management-principles/&lt;br&gt;&lt;span style=&quot;color: rgba(0 , 0 , 0 , 0) ; font-family: monospace ; font-size: 0px ; white-space: nowrap&quot;&gt;%3CmxGraphModel%3E%3Croot%3E%3CmxCell%20id%3D%220%22%2F%3E%3CmxCell%20id%3D%221%22%20parent%3D%220%22%2F%3E%3CUserObject%20label%3D%22NZ%20Data%20and%20Information%20Management%20Principles%22%20link%3D%22https%3A%2F%2Fwww.data.govt.nz%2Fmanage-data%2Fpolicies%2Fnew-zealand-data-and-information-management-principles%2F%22%20id%3D%222%22%3E%3CmxCell%20style%3D%22text%3Bhtml%3D1%3BstrokeColor%3Dnone%3BfillColor%3Dnone%3BwhiteSpace%3Dwrap%3Balign%3Dleft%3BverticalAlign%3Dmiddle%3BfontColor%3D%230000EE%3BfontStyle%3D4%3Bdashed%3D1%3Bopacity%3D20%3B%22%20vertex%3D%221%22%20parent%3D%221%22%3E%3CmxGeometry%20x%3D%22400%22%20y%3D%22650%22%20width%3D%22270%22%20height%3D%2240%22%20as%3D%22geometry%22%2F%3E%3C%2FmxCell%3E%3C%2FUserObject%3E%3C%2Froot%3E%3C%2FmxGraphModel%3E&lt;/span&gt;&lt;/a&gt;&lt;font color=&quot;rgba(0, 0, 0, 0)&quot; face=&quot;monospace&quot;&gt;&lt;span style=&quot;font-size: 0px ; white-space: nowrap&quot;&gt;&lt;a href=&quot;data:page/id,PDShuZ-yXdiyHlfbQ3Md&quot;&gt;https://www.data.govt.nz/manage-data/policies/new-zealand-data-and-information-management-principles/&lt;br&gt;&lt;/a&gt;&lt;br&gt;&lt;/span&gt;&lt;/font&gt;" style="shape=note;whiteSpace=wrap;html=1;size=14;verticalAlign=top;align=left;spacingTop=-6;" vertex="1" parent="vxBBJPv8Y2YeqQfoSaYq-9">
          <mxGeometry x="360" y="180" width="320" height="60" as="geometry" />
        </mxCell>
        <mxCell id="msWVFrf8vx3zRPam6J4N-1" value="Context/Legend" parent="9pa9Pr11mj6_5Fp1FYpv-0" />
        <mxCell id="8MBAd59rJ7gh_RbVFr4k-0" value="Title/Diagram" parent="9pa9Pr11mj6_5Fp1FYpv-0" />
        <mxCell id="8MBAd59rJ7gh_RbVFr4k-1" value="&lt;font style=&quot;font-size: 12px&quot;&gt;Diagram: System Context - Constraints - Agreements - Principles -&amp;nbsp;&amp;nbsp;&lt;br&gt;&lt;span style=&quot;font-size: 12px&quot;&gt;&amp;nbsp; &amp;nbsp; &amp;nbsp; &amp;nbsp; &amp;nbsp; &amp;nbsp; &amp;nbsp; &amp;nbsp; NZ Specific&amp;nbsp;&lt;/span&gt;Data and Information Management Principles&lt;/font&gt;" style="text;strokeColor=none;fillColor=none;html=1;fontSize=12;fontStyle=2;verticalAlign=middle;align=left;shadow=0;glass=0;comic=0;opacity=30;fontColor=#808080;" vertex="1" parent="8MBAd59rJ7gh_RbVFr4k-0">
          <mxGeometry x="120" y="660" width="520" height="40" as="geometry" />
        </mxCell>
      </root>
    </mxGraphModel>
  </diagram>
</mxfile>
